<svg xmlns="http://www.w3.org/2000/svg" viewBox="0 0 447.14 447.14">
    <path d="M327.37 37.2c-21.61 0-42.34 5.66-60.66 16.48a105.19 105.19 0 0 0-56.47-16.48c-35.56 0-68.7 18.3-87.94 47.6-5.66-.94-11.41-1.4-17.2-1.4C47.15 83.4 0 130.58 0 188.6c0 58 47.15 105.2 105.1 105.2 8.8 0 17.47-1.08 25.89-3.22a104.84 104.84 0 0 0 79.25 36.1 104.4 104.4 0 0 0 60.19-18.95 105.08 105.08 0 0 0 30.84-33.61c8.52 1.9 17.25 2.86 26.1 2.86 66.04 0 119.77-53.78 119.77-119.89 0-66.1-53.73-119.89-119.77-119.89zm-190.1 170.45a25.7 25.7 0 1 1 0-51.41 25.7 25.7 0 0 1 0 51.41zm86.3 0a25.7 25.7 0 1 1 0-51.41 25.7 25.7 0 0 1 0 51.41zm86.3 0a25.7 25.7 0 1 1 0-51.41 25.7 25.7 0 0 1 0 51.41z"/>
    <circle cx="95.58" cy="348.76" r="29.27"/>
    <circle cx="176.01" cy="391.14" r="18.79"/>
</svg>
